HIERARCHY
ROOT hip
{
  OFFSET 0 90.174 2.4664
  CHANNELS 6 Xposition Yposition Zposition Zrotation Xrotation Yrotation
  JOINT abdomen
  {
    OFFSET 0 -1.186 -1.5018
    CHANNELS 6 Xposition Yposition Zposition Zrotation Xrotation Yrotation
    JOINT abdomen2
    {
      OFFSET 0 9.964 0.2134
      CHANNELS 6 Xposition Yposition Zposition Zrotation Xrotation Yrotation
      JOINT chest
      {
        OFFSET 0 13.134 -3.2573
        CHANNELS 6 Xposition Yposition Zposition Zrotation Xrotation Yrotation
        JOINT neck
        {
          OFFSET 0 20.686 -1.6905
          CHANNELS 6 Xposition Yposition Zposition Zrotation Xrotation Yrotation
          JOINT head
          {
            OFFSET 0 7.238 -0.1237
            CHANNELS 6 Xposition Yposition Zposition Zrotation Xrotation Yrotation
            End Site
            {
              OFFSET 0 0 0
            }
          }
        }
        JOINT lCollar
        {
          OFFSET 1.7069 20.075 5.0056
          CHANNELS 6 Xposition Yposition Zposition Zrotation Xrotation Yrotation
          JOINT lShldr
          {
            OFFSET 13.6458 -0.047 -4.849
            CHANNELS 6 Xposition Yposition Zposition Zrotation Xrotation Yrotation
            JOINT lForeArm
            {
              OFFSET 28.3255 -0.9759 2.2888
              CHANNELS 6 Xposition Yposition Zposition Zrotation Xrotation Yrotation
              JOINT lHand
              {
                OFFSET 22.1583 -0.53 10.8316
                CHANNELS 6 Xposition Yposition Zposition Zrotation Xrotation Yrotation
                JOINT lThumb1
                {
                  OFFSET 0.786 0.112 2.5817
                  CHANNELS 6 Xposition Yposition Zposition Zrotation Xrotation Yrotation
                  JOINT lThumb2
                  {
                    OFFSET 0.3601 -0.878 4.2331
                    CHANNELS 6 Xposition Yposition Zposition Zrotation Xrotation Yrotation
                    JOINT lThumb2_End
                    {
                      OFFSET 1.8127 -1.216 2.2227
                      CHANNELS 6 Xposition Yposition Zposition Zrotation Xrotation Yrotation
                      End Site
                      {
                        OFFSET 0.0181 -0.0122 0.0222
                      }
                    }
                  }
                }
                JOINT lCarpal1
                {
                  OFFSET 0.9571 1.114 1.7695
                  CHANNELS 6 Xposition Yposition Zposition Zrotation Xrotation Yrotation
                  JOINT lIndex1
                  {
                    OFFSET 4.1246 0.487 4.1451
                    CHANNELS 6 Xposition Yposition Zposition Zrotation Xrotation Yrotation
                    JOINT lIndex2
                    {
                      OFFSET 3.4052 -1.454 2.7682
                      CHANNELS 6 Xposition Yposition Zposition Zrotation Xrotation Yrotation
                      JOINT lIndex2_End
                      {
                        OFFSET 1.4531 -1.795 1.2713
                        CHANNELS 6 Xposition Yposition Zposition Zrotation Xrotation Yrotation
                        End Site
                        {
                          OFFSET 0.0145 -0.0179 0.0127
                        }
                      }
                    }
                  }
                  JOINT lMid1
                  {
                    OFFSET 5.6954 0.21 2.1184
                    CHANNELS 6 Xposition Yposition Zposition Zrotation Xrotation Yrotation
                    JOINT lMid2
                    {
                      OFFSET 3.9766 -1.54 2.3863
                      CHANNELS 6 Xposition Yposition Zposition Zrotation Xrotation Yrotation
                      JOINT lMid2_End
                      {
                        OFFSET 1.4042 -1.926 1.125
                        CHANNELS 6 Xposition Yposition Zposition Zrotation Xrotation Yrotation
                        End Site
                        {
                          OFFSET 0.014 -0.0193 0.0113
                        }
                      }
                    }
                  }
                }
                JOINT lCarpal2
                {
                  OFFSET 2.0956 0.66 -0.3894
                  CHANNELS 6 Xposition Yposition Zposition Zrotation Xrotation Yrotation
                  JOINT lRing1
                  {
                    OFFSET 5.0395 -0.09 2.4971
                    CHANNELS 6 Xposition Yposition Zposition Zrotation Xrotation Yrotation
                    JOINT lRing2
                    {
                      OFFSET 3.7921 -1.552 1.4806
                      CHANNELS 6 Xposition Yposition Zposition Zrotation Xrotation Yrotation
                      JOINT lRing2_End
                      {
                        OFFSET 1.4655 -1.808 0.9609
                        CHANNELS 6 Xposition Yposition Zposition Zrotation Xrotation Yrotation
                        End Site
                        {
                          OFFSET 0.0147 -0.0181 0.0096
                        }
                      }
                    }
                  }
                  JOINT lPinky1
                  {
                    OFFSET 4.9141 -1.269 0.3591
                    CHANNELS 6 Xposition Yposition Zposition Zrotation Xrotation Yrotation
                    JOINT lPinky2
                    {
                      OFFSET 3.1477 -1.685 0.8462
                      CHANNELS 6 Xposition Yposition Zposition Zrotation Xrotation Yrotation
                      JOINT lPinky2_End
                      {
                        OFFSET 0.8055 -1.585 0.7955
                        CHANNELS 6 Xposition Yposition Zposition Zrotation Xrotation Yrotation
                        End Site
                        {
                          OFFSET 0.0081 -0.0158 0.008
                        }
                      }
                    }
                  }
                }
              }
            }
          }
        }
        JOINT rCollar
        {
          OFFSET -1.7069 20.075 5.0056
          CHANNELS 6 Xposition Yposition Zposition Zrotation Xrotation Yrotation
          JOINT rShldr
          {
            OFFSET -13.6458 -0.047 -4.849
            CHANNELS 6 Xposition Yposition Zposition Zrotation Xrotation Yrotation
            JOINT rForeArm
            {
              OFFSET -28.3255 -0.9759 2.2888
              CHANNELS 6 Xposition Yposition Zposition Zrotation Xrotation Yrotation
              JOINT rHand
              {
                OFFSET -22.1583 -0.53 10.8316
                CHANNELS 6 Xposition Yposition Zposition Zrotation Xrotation Yrotation
                JOINT rThumb1
                {
                  OFFSET -0.786 0.112 2.5817
                  CHANNELS 6 Xposition Yposition Zposition Zrotation Xrotation Yrotation
                  JOINT rThumb2
                  {
                    OFFSET -0.3601 -0.878 4.2331
                    CHANNELS 6 Xposition Yposition Zposition Zrotation Xrotation Yrotation
                    JOINT rThumb2_End
                    {
                      OFFSET -1.8127 -1.216 2.2227
                      CHANNELS 6 Xposition Yposition Zposition Zrotation Xrotation Yrotation
                      End Site
                      {
                        OFFSET -0.0181 -0.0122 0.0222
                      }
                    }
                  }
                }
                JOINT rCarpal1
                {
                  OFFSET -0.9571 1.114 1.7695
                  CHANNELS 6 Xposition Yposition Zposition Zrotation Xrotation Yrotation
                  JOINT rIndex1
                  {
                    OFFSET -4.1246 0.487 4.1451
                    CHANNELS 6 Xposition Yposition Zposition Zrotation Xrotation Yrotation
                    JOINT rIndex2
                    {
                      OFFSET -3.4052 -1.454 2.7682
                      CHANNELS 6 Xposition Yposition Zposition Zrotation Xrotation Yrotation
                      JOINT rIndex2_End
                      {
                        OFFSET -1.4531 -1.795 1.2713
                        CHANNELS 6 Xposition Yposition Zposition Zrotation Xrotation Yrotation
                        End Site
                        {
                          OFFSET -0.0145 -0.018 0.0127
                        }
                      }
                    }
                  }
                  JOINT rMid1
                  {
                    OFFSET -5.6954 0.21 2.1184
                    CHANNELS 6 Xposition Yposition Zposition Zrotation Xrotation Yrotation
                    JOINT rMid2
                    {
                      OFFSET -3.9766 -1.54 2.3863
                      CHANNELS 6 Xposition Yposition Zposition Zrotation Xrotation Yrotation
                      JOINT rMid2_End
                      {
                        OFFSET -1.4042 -1.926 1.125
                        CHANNELS 6 Xposition Yposition Zposition Zrotation Xrotation Yrotation
                        End Site
                        {
                          OFFSET -0.014 -0.0193 0.0113
                        }
                      }
                    }
                  }
                }
                JOINT rCarpal2
                {
                  OFFSET -2.0956 0.66 -0.3894
                  CHANNELS 6 Xposition Yposition Zposition Zrotation Xrotation Yrotation
                  JOINT rRing1
                  {
                    OFFSET -5.0395 -0.09 2.4971
                    CHANNELS 6 Xposition Yposition Zposition Zrotation Xrotation Yrotation
                    JOINT rRing2
                    {
                      OFFSET -3.7921 -1.552 1.4806
                      CHANNELS 6 Xposition Yposition Zposition Zrotation Xrotation Yrotation
                      JOINT rRing2_End
                      {
                        OFFSET -1.4655 -1.808 0.9609
                        CHANNELS 6 Xposition Yposition Zposition Zrotation Xrotation Yrotation
                        End Site
                        {
                          OFFSET -0.0147 -0.0181 0.0096
                        }
                      }
                    }
                  }
                  JOINT rPinky1
                  {
                    OFFSET -4.9141 -1.269 0.3592
                    CHANNELS 6 Xposition Yposition Zposition Zrotation Xrotation Yrotation
                    JOINT rPinky2
                    {
                      OFFSET -3.1477 -1.685 0.8462
                      CHANNELS 6 Xposition Yposition Zposition Zrotation Xrotation Yrotation
                      JOINT rPinky2_End
                      {
                        OFFSET -0.8055 -1.585 0.7955
                        CHANNELS 6 Xposition Yposition Zposition Zrotation Xrotation Yrotation
                        End Site
                        {
                          OFFSET -0.0081 -0.0158 0.008
                        }
                      }
                    }
                  }
                }
              }
            }
          }
        }
      }
    }
  }
  JOINT lThigh
  {
    OFFSET 8.367 -8.2066 0.5982
    CHANNELS 6 Xposition Yposition Zposition Zrotation Xrotation Yrotation
    JOINT lShin
    {
      OFFSET 2.1923 -43.463 -0.4932
      CHANNELS 6 Xposition Yposition Zposition Zrotation Xrotation Yrotation
      JOINT lFoot
      {
        OFFSET 0.7333 -45.8593 -2.6451
        CHANNELS 6 Xposition Yposition Zposition Zrotation Xrotation Yrotation
        End Site
        {
          OFFSET 2.6618 -4.2699 12.3931
        }
      }
    }
  }
  JOINT rThigh
  {
    OFFSET -8.367 -8.2066 0.5982
    CHANNELS 6 Xposition Yposition Zposition Zrotation Xrotation Yrotation
    JOINT rShin
    {
      OFFSET -2.1923 -43.463 -0.4931
      CHANNELS 6 Xposition Yposition Zposition Zrotation Xrotation Yrotation
      JOINT rFoot
      {
        OFFSET -0.7333 -45.8593 -2.6451
        CHANNELS 6 Xposition Yposition Zposition Zrotation Xrotation Yrotation
        End Site
        {
          OFFSET -2.6618 -4.2699 12.3931
        }
      }
    }
  }
}
MOTION
Frames:	4
Frame Time:	0.0333333
-2.78816 49.071 -28.9115 -0 -20.5271 -0 0 -1.186 -1.5018 0.145282 19.2101 -0.137831 0 9.964 0.2134 0.378273 38.4197 -0.364969 0 13.134 -3.2573 0.378273 38.4197 -0.364969 -4.44089e-016 20.686 -1.6905 -1.5967 10.4345 -12.8979 0 7.238 -0.1237 5.71462 -37.4417 3.47248 1.7069 20.075 5.0056 23.6681 -10.3269 -25.3666 13.6458 -0.047 -4.849 -37.9798 -51.8733 -8.55059 28.3255 -0.9759 2.2888 32.6893 -32.2203 -99.0377 22.1583 -0.53 10.8316 -15.9911 -35.94 -11.6708 0.786 0.112 2.5817 -1.76556e-031 -3.18055e-015 -3.18055e-015 0.3601 -0.878 4.2331 5.23413e-007 -1.29888e-006 -3.34202e-006 1.8127 -1.216 2.2227 -2.88298e-006 1.48236e-006 9.18077e-007 0.9571 1.114 1.7695 8.82781e-032 -1.59028e-015 3.18055e-015 4.1246 0.487 4.1451 -3.18055e-015 -4.77083e-015 -6.36111e-015 3.4052 -1.454 2.7682 5.23413e-007 -1.29888e-006 -3.34202e-006 1.4531 -1.795 1.2713 -2.88298e-006 1.48236e-006 9.18077e-007 5.6954 0.21 2.1184 -3.18055e-015 -4.77083e-015 -6.36111e-015 3.9766 -1.54 2.3863 5.23413e-007 -1.29888e-006 -3.34202e-006 1.4042 -1.926 1.125 -2.88298e-006 1.48236e-006 9.18077e-007 2.0956 0.66 -0.3894 8.82781e-032 -1.59028e-015 3.18055e-015 5.0395 -0.09 2.4971 -3.18055e-015 -4.77083e-015 -6.36111e-015 3.7921 -1.552 1.4806 5.23413e-007 -1.29888e-006 -3.34202e-006 1.4655 -1.808 0.9609 -2.88298e-006 1.48236e-006 9.18077e-007 4.9141 -1.269 0.3591 -3.18055e-015 -4.77083e-015 -6.36111e-015 3.1477 -1.685 0.8462 5.23413e-007 -1.29888e-006 -3.34202e-006 0.8055 -1.585 0.7955 -2.88298e-006 1.48236e-006 9.18077e-007 -1.7069 20.075 5.0056 -24.5064 -10.1392 24.9839 -13.6458 -0.047 -4.849 41.123 -50.5474 11.5388 -28.3255 -0.9759 2.2888 -33.1483 -33.0107 96.8698 -22.1583 -0.53 10.8316 4.66586 1.21695 -35.9054 -0.786 0.112 2.5817 7.71897e-008 -8.30516e-007 5.33046e-006 -0.3601 -0.878 4.2331 -8.3561e-008 6.603e-008 6.84854e-009 -1.8127 -1.216 2.2227 -3.61118e-007 -8.00548e-007 -1.74432e-008 -0.9571 1.114 1.7695 -7.95139e-016 0 -1.59028e-015 -4.1246 0.487 4.1451 7.71897e-008 -8.30516e-007 5.33046e-006 -3.4052 -1.454 2.7682 -8.3561e-008 6.603e-008 6.84854e-009 -1.4531 -1.795 1.2713 -3.61118e-007 -8.00548e-007 -1.74432e-008 -5.6954 0.21 2.1184 7.71897e-008 -8.30516e-007 5.33046e-006 -3.9766 -1.54 2.3863 -8.3561e-008 6.603e-008 6.84854e-009 -1.4042 -1.926 1.125 -3.61118e-007 -8.00548e-007 -1.74432e-008 -2.0956 0.66 -0.3894 -7.95139e-016 0 -1.59028e-015 -5.0395 -0.09 2.4971 7.71897e-008 -8.30516e-007 5.33046e-006 -3.7921 -1.552 1.4806 -8.3561e-008 6.603e-008 6.84854e-009 -1.4655 -1.808 0.9609 -3.61118e-007 -8.00548e-007 -1.74432e-008 -4.9141 -1.269 0.3592 7.71897e-008 -8.30516e-007 5.33046e-006 -3.1477 -1.685 0.8462 -8.3561e-008 6.603e-008 6.84854e-009 -0.8055 -1.585 0.7955 -3.61118e-007 -8.00548e-007 -1.74432e-008 8.367 -8.2066 0.5982 10.8968 5.29846 10.8409 2.1923 -43.463 -0.4932 108.729 84.4404 -111.182 0.7333 -45.8593 -2.6451 26.2468 63.0203 -3.68923 -8.367 -8.2066 0.5982 -11.7459 4.58302 -10.5545 -2.1923 -43.463 -0.4931 -110.551 84.2283 113.079 -0.7333 -45.8593 -2.6451 -25.3713 61.3302 3.62712 
-2.78831 49.0507 -28.6435 -0 -19.9353 -0 0 -1.186 -1.5018 0.145273 18.9538 -0.135751 0 9.964 0.2134 0.375295 37.907 -0.358279 0 13.134 -3.2573 0.375294 37.907 -0.358279 4.44089e-016 20.686 -1.6905 -1.62338 10.3162 -12.9788 3.55271e-015 7.238 -0.1237 5.60007 -35.8829 3.28019 1.7069 20.075 5.0056 23.0668 -9.41314 -26.1099 13.6458 -0.047 -4.849 -37.9551 -51.8826 -8.53534 28.3255 -0.9759 2.2888 32.6868 -32.2232 -99.0488 22.1583 -0.53 10.8316 -16.0213 -35.3547 -12.1009 0.786 0.112 2.5817 1.39207e-006 3.02029e-006 2.84651e-006 0.3601 -0.878 4.2331 -1.35203e-006 6.04041e-007 -2.94507e-006 1.8127 -1.216 2.2227 3.18055e-015 -3.18055e-015 3.18055e-015 0.9571 1.114 1.7695 -0 0 3.18055e-015 4.1246 0.487 4.1451 1.39207e-006 3.02029e-006 2.84651e-006 3.4052 -1.454 2.7682 -1.35203e-006 6.04041e-007 -2.94507e-006 1.4531 -1.795 1.2713 3.18055e-015 -1.59028e-015 -0 5.6954 0.21 2.1184 1.39207e-006 3.02029e-006 2.84651e-006 3.9766 -1.54 2.3863 -1.35203e-006 6.04041e-007 -2.94507e-006 1.4042 -1.926 1.125 3.18055e-015 -1.59028e-015 -0 2.0956 0.66 -0.3894 -0 0 3.18055e-015 5.0395 -0.09 2.4971 1.39207e-006 3.02029e-006 2.84651e-006 3.7921 -1.552 1.4806 -1.35203e-006 6.04041e-007 -2.94507e-006 1.4655 -1.808 0.9609 3.18055e-015 -1.59028e-015 -0 4.9141 -1.269 0.3591 1.39207e-006 3.02029e-006 2.84651e-006 3.1477 -1.685 0.8462 -1.35203e-006 6.04041e-007 -2.94507e-006 0.8055 -1.585 0.7955 3.18055e-015 -1.59028e-015 -0 -1.7069 20.075 5.0056 -23.8184 -9.19832 25.6777 -13.6458 -0.047 -4.849 41.123 -50.5473 11.5388 -28.3255 -0.9759 2.2888 -33.1457 -33.0136 96.8806 -22.1583 -0.53 10.8316 4.43178 1.70453 -35.3667 -0.786 0.112 2.5817 1.59028e-015 1.78906e-015 -1.59028e-015 -0.3601 -0.878 4.2331 0 1.39149e-015 -0 -1.8127 -1.216 2.2227 -1.67141e-007 1.3204e-007 1.36615e-008 -0.9571 1.114 1.7695 2.38542e-015 3.97569e-016 -1.59028e-015 -4.1246 0.487 4.1451 -3.97569e-015 9.74045e-015 -0 -3.4052 -1.454 2.7682 7.95139e-016 9.93923e-016 -1.59028e-015 -1.4531 -1.795 1.2713 -1.67141e-007 1.3204e-007 1.36615e-008 -5.6954 0.21 2.1184 -3.97569e-015 9.74045e-015 -0 -3.9766 -1.54 2.3863 7.95139e-016 9.93923e-016 -1.59028e-015 -1.4042 -1.926 1.125 -1.67141e-007 1.3204e-007 1.36615e-008 -2.0956 0.66 -0.3894 2.38542e-015 3.97569e-016 -1.59028e-015 -5.0395 -0.09 2.4971 -3.97569e-015 9.74045e-015 -0 -3.7921 -1.552 1.4806 7.95139e-016 9.93923e-016 -1.59028e-015 -1.4655 -1.808 0.9609 -1.67141e-007 1.3204e-007 1.36615e-008 -4.9141 -1.269 0.3592 -3.97569e-015 9.74045e-015 -0 -3.1477 -1.685 0.8462 7.95139e-016 9.93923e-016 -1.59028e-015 -0.8055 -1.585 0.7955 -1.67141e-007 1.3204e-007 1.36615e-008 8.367 -8.2066 0.5982 10.8412 4.95458 10.8848 2.1923 -43.463 -0.4932 108.719 84.4407 -111.173 0.7333 -45.8593 -2.6451 26.2312 63.0145 -3.6772 -8.367 -8.2066 0.5982 -11.7038 4.23828 -10.6173 -2.1923 -43.463 -0.4931 -110.549 84.2285 113.078 -0.7333 -45.8593 -2.6451 -25.3703 61.3297 3.62676 
-2.78843 49.0319 -28.4024 -0 -19.4024 -0 0 -1.186 -1.5018 0.14526 18.7229 -0.133881 0 9.964 0.2134 0.372669 37.4453 -0.352318 4.44089e-016 13.134 -3.2573 0.372669 37.4453 -0.352318 0 20.686 -1.6905 -1.65024 10.1979 -13.0597 0 7.238 -0.1237 5.50364 -34.4749 3.11274 1.7069 20.075 5.0056 22.5355 -8.58127 -26.7693 13.6458 -0.047 -4.849 -37.9305 -51.8918 -8.52007 28.3255 -0.9759 2.2888 32.6844 -32.2261 -99.0599 22.1583 -0.53 10.8316 -16.044 -34.8272 -12.4853 0.786 0.112 2.5817 -9.17492e-007 -5.57194e-007 -2.8839e-006 0.3601 -0.878 4.2331 2.8839e-006 -1.48112e-006 -9.17492e-007 1.8127 -1.216 2.2227 -2.35944e-006 1.83366e-007 -2.42516e-006 0.9571 1.114 1.7695 -3.18055e-015 1.59028e-015 -0 4.1246 0.487 4.1451 -9.17492e-007 -5.57194e-007 -2.8839e-006 3.4052 -1.454 2.7682 2.8839e-006 -1.48112e-006 -9.17492e-007 1.4531 -1.795 1.2713 -2.35944e-006 1.83366e-007 -2.42516e-006 5.6954 0.21 2.1184 -9.17492e-007 -5.57194e-007 -2.8839e-006 3.9766 -1.54 2.3863 2.8839e-006 -1.48112e-006 -9.17492e-007 1.4042 -1.926 1.125 -2.35944e-006 1.83366e-007 -2.42516e-006 2.0956 0.66 -0.3894 -3.18055e-015 1.59028e-015 -0 5.0395 -0.09 2.4971 -9.17492e-007 -5.57194e-007 -2.8839e-006 3.7921 -1.552 1.4806 2.8839e-006 -1.48112e-006 -9.17492e-007 1.4655 -1.808 0.9609 -2.35944e-006 1.83366e-007 -2.42516e-006 4.9141 -1.269 0.3591 -9.17492e-007 -5.57194e-007 -2.8839e-006 3.1477 -1.685 0.8462 2.8839e-006 -1.48112e-006 -9.17492e-007 0.8055 -1.585 0.7955 -2.35944e-006 1.83366e-007 -2.42516e-006 -1.7069 20.075 5.0056 -23.2085 -8.3414 26.291 -13.6458 -0.047 -4.849 41.123 -50.5473 11.5388 -28.3255 -0.9759 2.2888 -33.1431 -33.0165 96.8913 -22.1583 -0.53 10.8316 4.21754 2.14138 -34.8792 -0.786 0.112 2.5817 -1.59028e-015 -5.96354e-016 -0 -0.3601 -0.878 4.2331 -4.15674e-007 -9.06851e-007 3.09397e-006 -1.8127 -1.216 2.2227 6.26527e-007 -4.93534e-007 6.44859e-006 -0.9571 1.114 1.7695 -7.95139e-016 -5.96354e-016 -0 -4.1246 0.487 4.1451 -3.97569e-015 3.57812e-015 1.59028e-015 -3.4052 -1.454 2.7682 -4.15674e-007 -9.06851e-007 3.09397e-006 -1.4531 -1.795 1.2713 6.26527e-007 -4.93534e-007 6.44859e-006 -5.6954 0.21 2.1184 -3.97569e-015 3.57812e-015 1.59028e-015 -3.9766 -1.54 2.3863 -4.15674e-007 -9.06851e-007 3.09397e-006 -1.4042 -1.926 1.125 6.26527e-007 -4.93534e-007 6.44859e-006 -2.0956 0.66 -0.3894 -7.95139e-016 -5.96354e-016 -0 -5.0395 -0.09 2.4971 -3.97569e-015 3.57812e-015 1.59028e-015 -3.7921 -1.552 1.4806 -4.15674e-007 -9.06851e-007 3.09397e-006 -1.4655 -1.808 0.9609 6.26527e-007 -4.93534e-007 6.44859e-006 -4.9141 -1.269 0.3592 -3.97569e-015 3.57812e-015 1.59028e-015 -3.1477 -1.685 0.8462 -4.15674e-007 -9.06851e-007 3.09397e-006 -0.8055 -1.585 0.7955 6.26527e-007 -4.93534e-007 6.44859e-006 8.367 -8.2066 0.5982 10.7913 4.64505 10.924 2.1923 -43.463 -0.4932 108.709 84.441 -111.164 0.7333 -45.8593 -2.6451 26.2157 63.0087 -3.66521 -8.367 -8.2066 0.5982 -11.6663 3.92785 -10.6736 -2.1923 -43.463 -0.4931 -110.548 84.2285 113.078 -0.7333 -45.8593 -2.6451 -25.3694 61.3292 3.62643 
-2.78855 49.0125 -28.1614 -0 -18.8694 -0 0 -1.186 -1.5018 0.145243 18.4919 -0.132015 0 9.964 0.2134 0.370097 36.9834 -0.346416 -4.44089e-016 13.134 -3.2573 0.370097 36.9834 -0.346416 4.44089e-016 20.686 -1.6905 -1.67724 10.0801 -13.1406 -3.55271e-015 7.238 -0.1237 5.41347 -33.0631 2.95045 1.7069 20.075 5.0056 22.0141 -7.74204 -27.4206 13.6458 -0.047 -4.849 -37.9058 -51.9011 -8.50479 28.3255 -0.9759 2.2888 32.682 -32.229 -99.071 22.1583 -0.53 10.8316 -16.0623 -34.2994 -12.8672 0.786 0.112 2.5817 2.88438e-006 -1.48035e-006 -9.17345e-007 0.3601 -0.878 4.2331 1.38709e-006 3.0227e-006 2.84032e-006 1.8127 -1.216 2.2227 -1.38709e-006 -3.0227e-006 -2.84032e-006 0.9571 1.114 1.7695 -0 0 6.36111e-015 4.1246 0.487 4.1451 2.88438e-006 -1.48035e-006 -9.17345e-007 3.4052 -1.454 2.7682 1.38709e-006 3.0227e-006 2.84032e-006 1.4531 -1.795 1.2713 -1.38709e-006 -3.0227e-006 -2.84032e-006 5.6954 0.21 2.1184 2.88438e-006 -1.48035e-006 -9.17345e-007 3.9766 -1.54 2.3863 1.38709e-006 3.0227e-006 2.84032e-006 1.4042 -1.926 1.125 -1.38709e-006 -3.0227e-006 -2.84032e-006 2.0956 0.66 -0.3894 -0 0 6.36111e-015 5.0395 -0.09 2.4971 2.88438e-006 -1.48035e-006 -9.17345e-007 3.7921 -1.552 1.4806 1.38709e-006 3.0227e-006 2.84032e-006 1.4655 -1.808 0.9609 -1.38709e-006 -3.0227e-006 -2.84032e-006 4.9141 -1.269 0.3591 2.88438e-006 -1.48035e-006 -9.17345e-007 3.1477 -1.685 0.8462 1.38709e-006 3.0227e-006 2.84032e-006 0.8055 -1.585 0.7955 -1.38709e-006 -3.0227e-006 -2.84032e-006 -1.7069 20.075 5.0056 -22.6081 -7.47663 26.8948 -13.6458 -0.047 -4.849 41.123 -50.5473 11.5388 -28.3255 -0.9759 2.2888 -33.1405 -33.0194 96.9021 -22.1583 -0.53 10.8316 3.9994 2.57663 -34.3897 -0.786 0.112 2.5817 -1.21865e-007 -5.30245e-007 2.24132e-006 -0.3601 -0.878 4.2331 -4.52975e-008 6.62263e-007 -2.22772e-006 -1.8127 -1.216 2.2227 -1.21865e-007 -5.30245e-007 2.24132e-006 -0.9571 1.114 1.7695 -1.32417e-031 1.59028e-015 4.77083e-015 -4.1246 0.487 4.1451 -1.21865e-007 -5.30245e-007 2.24132e-006 -3.4052 -1.454 2.7682 -4.52975e-008 6.62263e-007 -2.22772e-006 -1.4531 -1.795 1.2713 -1.21865e-007 -5.30245e-007 2.24132e-006 -5.6954 0.21 2.1184 -1.21865e-007 -5.30245e-007 2.24132e-006 -3.9766 -1.54 2.3863 -4.52975e-008 6.62263e-007 -2.22772e-006 -1.4042 -1.926 1.125 -1.21865e-007 -5.30245e-007 2.24132e-006 -2.0956 0.66 -0.3894 -1.32417e-031 1.59028e-015 4.77083e-015 -5.0395 -0.09 2.4971 -1.21865e-007 -5.30245e-007 2.24132e-006 -3.7921 -1.552 1.4806 -4.52975e-008 6.62263e-007 -2.22772e-006 -1.4655 -1.808 0.9609 -1.21865e-007 -5.30245e-007 2.24132e-006 -4.9141 -1.269 0.3592 -1.21865e-007 -5.30245e-007 2.24132e-006 -3.1477 -1.685 0.8462 -4.52975e-008 6.62263e-007 -2.22772e-006 -0.8055 -1.585 0.7955 -1.21865e-007 -5.30245e-007 2.24132e-006 8.367 -8.2066 0.5982 10.7416 4.33536 10.963 2.1923 -43.463 -0.4932 108.701 84.4414 -111.156 0.7333 -45.8593 -2.6451 26.2002 63.003 -3.65321 -8.367 -8.2066 0.5982 -11.629 3.61733 -10.7297 -2.1923 -43.463 -0.4931 -110.546 84.2286 113.076 -0.7333 -45.8593 -2.6451 -25.3685 61.3288 3.62619 
